<?xml version="1.0" encoding="utf-8"?>
<!-- Generator: Adobe Illustrator 17.0.2, SVG Export Plug-In . SVG Version: 6.00 Build 0)  -->
<!DOCTYPE svg PUBLIC "-//W3C//DTD SVG 1.1//EN" "http://www.w3.org/Graphics/SVG/1.1/DTD/svg11.dtd">
<svg version="1.1" id="Layer_1" xmlns="http://www.w3.org/2000/svg" xmlns:xlink="http://www.w3.org/1999/xlink" x="0px" y="0px"
	 width="347.11px" height="123.045px" viewBox="0 0 347.11 123.045" enable-background="new 0 0 347.11 123.045"
	 xml:space="preserve">
<g>
	<g>
		<path fill="#FFFFFF" d="M347.11,35.917c-1.573,5.646-5.485,6.621-10.807,6.111c-5.278-0.506-10.646-0.211-15.967-0.042
			c-1.419,0.045-2.812,0.917-4.217,1.41c0.114,0.674,0.227,1.349,0.341,2.023c5.377,0,10.753-0.012,16.13,0.004
			c4.213,0.012,8.632-0.248,10.077,5.115c1.057,3.924-1.337,8.634-5.942,11.045c-2.294,1.201-4.97,2.216-7.508,2.304
			c-8.295,0.286-16.606,0.107-24.911,0.107c0.103-6.969,0.673-7.566,7.077-7.574c6.325-0.007,12.653,0.094,18.974-0.074
			c1.542-0.041,3.06-0.953,4.59-1.464c-0.134-0.601-0.269-1.202-0.403-1.803c-5.435,0-10.872,0.102-16.304-0.032
			c-4.326-0.107-9.051,0.046-10.422-5.51c-1.092-4.425,2.185-9.588,7.596-11.468c3.071-1.067,6.475-1.428,9.754-1.589
			c7.306-0.36,14.627-0.395,21.942-0.563C347.11,34.584,347.11,35.25,347.11,35.917z"/>
		<path fill="#FFFFFF" d="M175.26,95.349c9.413,0,18.159,0,27.581,0c-0.822,2.863-1.439,5.015-2.157,7.514
			c-8.837,0-17.646,0.135-26.449-0.052c-5.061-0.108-7.421-3.138-7.024-8.306c-10.336-0.521-16.022,8.416-25.748,11.643
			c3.092-3.678,5.45-6.482,8.599-10.229c-13.604-0.851-26.365-1.649-39.127-2.447c-0.016-0.212-0.031-0.424-0.047-0.636
			c4.761-0.304,9.518-0.669,14.283-0.899c8.477-0.408,16.956-0.905,25.439-1.033c5.375-0.081,5.948-3.945,6.683-7.664
			c0.829-4.196-2.392-5.559-5.384-5.48c-6.742,0.179-13.668,0.243-20.158,1.83c-22.968,5.618-41.546,18.962-58.498,34.839
			c-2.867,2.685-5.393,5.735-8.077,8.616c-0.339-0.262-0.677-0.523-1.016-0.785c0.884-1.495,1.607-3.117,2.675-4.465
			c20.521-25.888,46.547-42.8,79.438-48.311c3.057-0.512,6.331-0.317,9.429,0.107c10.985,1.501,13.935,6.448,10.396,16.997
			c-0.414,1.233-0.927,2.433-1.511,3.953c1.245,0.405,2.295,0.746,3.765,1.224c1.108-3.274,2.189-6.357,3.194-9.465
			c1.794-5.553,5.831-8.655,11.382-9.046c7.129-0.503,14.311-0.263,21.47-0.334c1.78-0.018,3.56-0.003,5.406-0.003
			c-1.37,7.819-1.37,7.82-8.23,7.822c-6.163,0.002-12.336-0.188-18.481,0.143c-1.446,0.078-3.45,1.623-4.063,2.999
			C177.501,87.312,176.623,91.035,175.26,95.349z"/>
		<path fill="#FFFFFF" d="M0,77.788c5.433-6.15,10.358-12.859,16.394-18.345c17.607-16.002,37.477-28.264,61.188-32.892
			c5.589-1.091,11.645-0.963,17.316-0.174c7.812,1.086,10.261,5.486,8.564,13.297c-0.488,2.247-1.294,4.425-2.11,7.157
			c5.05,0.312,9.953,0.961,14.811,0.719c1.59-0.079,3.064-2.475,4.591-3.811c-0.3-0.551-0.599-1.103-0.899-1.654
			c-4.21,0-8.42,0-12.686,0c1.039-7.938,1.092-7.989,8.125-7.99c9.464-0.002,18.928,0,28.438,0c-1,7.981-1.006,8.147-7.801,7.93
			c-4.912-0.157-9.028-0.383-9.144,6.602c-0.053,3.233-2.791,6.334-3.433,9.664c-1.086,5.628-4.143,6.926-9.622,5.245
			c1.314-4.356,2.632-8.726,3.959-13.125c-14.448-1.478-26.989,2.542-37.809,12.273c-0.27-0.429-0.54-0.858-0.81-1.287
			c2.262-2.822,4.523-5.643,7.391-9.221c-14.23-0.884-27.718-1.722-41.205-2.561c-0.003-0.173-0.006-0.347-0.009-0.52
			c13.706-0.668,27.41-1.35,41.117-1.998c4.616-0.218,7.362-2.896,7.652-7.759c0.288-4.825-3.58-5.734-6.705-5.427
			c-8.521,0.838-17.248,1.505-25.387,3.933c-21.075,6.288-38.033,19.464-53.715,34.4c-2.277,2.168-4.316,4.586-6.465,6.889
			C1.164,78.684,0.582,78.236,0,77.788z"/>
		<path fill="#FFFFFF" d="M275.584,56.303c8.606,0,17.212,0,25.839,0c-0.435,7.468-0.753,7.777-7.674,7.778
			c-6.158,0-12.319,0.119-18.472-0.044c-7.566-0.2-10.085-3.912-7.81-11.149c5.707-18.156,7.106-19.131,26.484-18.808
			c4.947,0.082,9.897,0.012,14.884,0.012c-0.679,7.296-1.013,7.617-7.097,7.652c-6.488,0.037-12.979,0.03-19.462,0.24
			c-1.422,0.046-2.818,0.929-4.226,1.426c0.118,0.602,0.236,1.205,0.354,1.807c8.828,0,17.656,0,26.486,0
			c-0.175,7.494-0.373,7.695-6.923,7.699c-6.324,0.004-12.651-0.086-18.971,0.071c-1.382,0.034-2.743,0.943-4.114,1.45
			C275.115,55.059,275.349,55.681,275.584,56.303z"/>
		<path fill="#FFFFFF" d="M256.157,34.092c-0.628,7.533-0.739,7.619-7.518,7.653c-6.318,0.031-12.639,0.017-18.951,0.247
			c-1.407,0.051-2.781,1.037-4.17,1.592c0.167,0.611,0.333,1.223,0.5,1.834c8.873,0,17.745,0,27.186,0
			c-0.932,2.877-1.629,5.028-2.429,7.499c-8.008,0-15.975-0.071-23.937,0.061c-1.572,0.026-3.131,0.836-4.697,1.285
			c0.107,0.673,0.215,1.347,0.322,2.02c8.796,0,17.593,0,26.514,0c-0.115,6.005-2.188,8.399-7.867,7.917
			c-6.275-0.533-12.636,0.034-18.947-0.205c-7.083-0.268-9.501-3.873-7.476-10.575c5.614-18.58,7.104-19.648,26.544-19.34
			C246.196,34.159,251.163,34.092,256.157,34.092z"/>
		<path fill="#FFFFFF" d="M263.638,29.041c-22.558-1.21-44.588-2.391-66.618-3.572c-0.013-0.214-0.025-0.428-0.038-0.642
			c10.429-0.469,20.857-0.954,31.287-1.403c11.466-0.494,22.93-1.075,34.401-1.356c3.138-0.077,4.616-1.124,5.729-4.08
			c2.325-6.176,5.158-12.16,8.446-17.988c-1.215,7.156-2.429,14.312-3.757,22.131c19.954,1.095,39.666,2.176,59.378,3.257
			c0.017,0.27,0.034,0.541,0.051,0.811c-9.04,0.511-18.077,1.07-27.12,1.521c-9.969,0.497-19.941,1.031-29.918,1.254
			c-3.097,0.069-4.631,0.928-5.794,3.963c-4.39,11.451-9.148,22.761-14.634,33.886C257.883,54.364,260.715,41.905,263.638,29.041z"
			/>
		<path fill="#FFFFFF" d="M268.234,102.897c-2.829,0-5.665,0.123-8.487-0.027c-5.126-0.271-7.623-2.826-6.53-7.756
			c1.214-5.47,3.008-10.899,5.285-16.018c1.93-4.338,6.381-5.721,10.839-5.957c5.644-0.299,11.316-0.338,16.966-0.153
			c4.99,0.163,7.569,3.461,6.721,8.373c-0.449,2.604-1.363,5.132-2.124,7.677c-3.286,10.996-7.177,13.88-18.676,13.88
			c-1.331,0-2.663,0-3.994,0C268.234,102.91,268.234,102.904,268.234,102.897z M260.544,95.378c6.682,0,12.613,0.078,18.537-0.088
			c0.843-0.024,2.088-1.075,2.403-1.926c1.464-3.955,2.665-8.006,4.151-12.612c-6.653,0-12.445-0.071-18.232,0.073
			c-0.91,0.023-2.318,0.82-2.606,1.592C263.306,86.41,262.104,90.511,260.544,95.378z"/>
		<path fill="#FFFFFF" d="M334.005,73.652c-2.59,7.787-4.933,15.378-7.704,22.81c-0.76,2.038-2.522,3.978-4.312,5.302
			c-4.049,2.995-8.522,1.699-10.666-2.883c-2.591-5.536-5.015-11.149-7.925-17.652c-1.96,5.948-4.06,10.868-5.141,16.002
			c-1.13,5.368-3.85,6.804-9.279,5.147c2.587-7.953,4.987-16.002,7.86-23.878c1.429-3.916,4.93-5.814,9.066-5.934
			c3.919-0.113,5.146,2.96,6.437,5.954c2.219,5.147,4.593,10.227,7.263,16.135c1.934-5.996,3.985-10.955,5.072-16.117
			C325.77,73.341,328.544,72.213,334.005,73.652z"/>
		<path fill="#FFFFFF" d="M181.456,34.782c-2.955,9.225-5.455,18.193-8.881,26.791c-0.724,1.816-4.84,2.28-7.393,3.367
			c-0.319-0.448-0.638-0.895-0.956-1.343c1.044-3.379,2.088-6.758,3.344-10.821c-6.382,0-12.172-0.287-17.893,0.22
			c-1.281,0.114-2.757,2.853-3.385,4.649c-2.35,6.712-2.233,6.753-9.96,6.073c2.645-8.072,5.53-15.913,7.73-23.941
			c1.367-4.989,3.947-6.438,9.318-4.733c-0.861,3.007-1.741,6.083-2.866,10.01c6.298,0,12.202,0.327,18.018-0.246
			c1.339-0.132,3.031-3.22,3.424-5.176C173.049,34.184,176.093,33.047,181.456,34.782z"/>
		<path fill="#FFFFFF" d="M210.213,80.916c1.14-7.817,1.14-7.819,8.123-7.82c9.449-0.002,18.897,0,29.018,0
			c-0.85,2.856-1.543,5.183-2.303,7.736c-4.481,0-8.765,0-13.428,0c-1.833,5.611-4.096,10.968-5.265,16.554
			c-1.206,5.764-4.298,6.71-9.695,5.134c2.25-7.005,4.497-14.003,6.938-21.603C218.729,80.916,214.5,80.916,210.213,80.916z"/>
		<path fill="#FFFFFF" d="M184.716,55.915c9.538,0,18.185,0,26.849,0c-0.659,7.942-0.892,8.164-8.339,8.166
			c-5.666,0.001-11.331,0.022-16.997-0.005c-9.394-0.046-11.535-3.08-8.572-12.143c1.344-4.112,2.739-8.208,4.114-12.31
			c2.092-6.244,2.093-6.243,9.535-5.225C189.166,41.387,187.04,48.326,184.716,55.915z"/>
		<path fill="#FFFFFF" d="M75.638,73.907c-1.878,4.439-3.374,8.237-5.174,11.884c-0.216,0.438-2.085,0.06-3.718,0.06
			c1.586-4.975,2.697-9.658,4.64-13.966c0.785-1.739,3.31-3.49,5.193-3.67c1.355-0.13,3.333,2.093,4.361,3.697
			c1.496,2.333,2.388,5.054,3.634,7.823c4.09-2.975,1.213-11.053,9.571-12.149c-2.003,5.923-3.291,10.713-5.309,15.174
			c-0.721,1.595-3.216,3.302-4.882,3.284c-1.497-0.016-3.356-2.085-4.362-3.684C78.027,79.873,77.05,77.017,75.638,73.907z"/>
		<path fill="#FFFFFF" d="M257.191,73.914c-2.887,8.935-5.458,17.997-8.925,26.701c-0.709,1.781-4.778,2.225-7.298,3.285
			c-0.349-0.477-0.699-0.953-1.048-1.43c3.059-9.174,5.856-18.452,9.426-27.423c0.617-1.55,4.507-1.796,6.885-2.645
			C256.551,72.907,256.871,73.411,257.191,73.914z"/>
		<path fill="#FFFFFF" d="M59.007,86.747c3.975-6.967,2.758-14.945,8.938-19.141c0.772,0.315,1.544,0.63,2.315,0.945
			c-1.839,5.634-3.541,11.321-5.675,16.841C64.289,86.158,61.865,86.102,59.007,86.747z"/>
	</g>
</g>
</svg>
